<svg width="64" height="64" viewBox="0 0 64 64" fill="none" xmlns="http://www.w3.org/2000/svg">
<path d="M56.5 31.3C56.5 30.8 56.6 30.4 56.8 30C54.9 28.9 53.8 27.3 53.8 25.5C53.9 22.7 57.1 20.4 61.2 20C62.2 10.6 62 2.99998 62 2.99998C62 2.99998 24.9 1.69998 11.4 14.7L10.7 15.4C12.7 16.6 14 18.6 14 20.9C14 24.6 10.5 27.7 6.2 27.7C4.9 27.7 3.7 27.4 2.6 26.9C-1.3 38.6 14.6 42 18.1 45.4C22.6 49.7 27.1 73.8 49.8 51.9C53.9 47.9 56.7 41.7 58.5 35.1C57.3 34.1 56.5 32.8 56.5 31.3" fill="#FFD93B"/>
<path d="M24.5 40.9L29.1 36.3L48.1 48L29.8 35.5L37.4 27.9L54.4 35.4L38.1 27.1L45.2 19.9L58.1 19.3L46.2 18.9L62 3L45.5 18.2L45.1 6.7L44.5 19.2L37.1 26.1L28.5 10.3L36.3 26.8L28.3 34.1L15.4 16.5L27.6 34.8L22.8 39.2L9.9 31.6L22.1 39.9L9.6 51.4L11.9 53.6L23.8 41.6L32.4 53.3L24.5 40.9Z" fill="#DB9523"/>
</svg>
